<?xml version="1.0" encoding="UTF-8" standalone="no"?>
<svg
   xmlns:dc="http://purl.org/dc/elements/1.1/"
   xmlns:cc="http://creativecommons.org/ns#"
   xmlns:rdf="http://www.w3.org/1999/02/22-rdf-syntax-ns#"
   xmlns:svg="http://www.w3.org/2000/svg"
   xmlns="http://www.w3.org/2000/svg"
   xmlns:sodipodi="http://sodipodi.sourceforge.net/DTD/sodipodi-0.dtd"
   xmlns:inkscape="http://www.inkscape.org/namespaces/inkscape"
   id="Layer_1"
   data-name="Layer 1"
   viewBox="0 0 512 512"
   version="1.1"
   sodipodi:docname="marker.svg"
   inkscape:version="1.0.1 (3bc2e813f5, 2020-09-07)">
  <metadata
     id="metadata11">
    <rdf:RDF>
      <cc:Work
         rdf:about="">
        <dc:format>image/svg+xml</dc:format>
        <dc:type
           rdf:resource="http://purl.org/dc/dcmitype/StillImage" />
      </cc:Work>
    </rdf:RDF>
  </metadata>
  <defs
     id="defs9" />
  <sodipodi:namedview
     pagecolor="#ffffff"
     bordercolor="#666666"
     borderopacity="1"
     objecttolerance="10"
     gridtolerance="10"
     guidetolerance="10"
     inkscape:pageopacity="0"
     inkscape:pageshadow="2"
     inkscape:window-width="1680"
     inkscape:window-height="987"
     id="namedview7"
     showgrid="false"
     inkscape:zoom="1.4355469"
     inkscape:cx="256"
     inkscape:cy="256"
     inkscape:window-x="-8"
     inkscape:window-y="-8"
     inkscape:window-maximized="1"
     inkscape:current-layer="Layer_1" />
  <title
     id="title2">map-pointer-glyph</title>
  <path
     d="M147.67,374.27c11,15.66,22.37,31,34,46.22,10.26,13.4,20.71,26.68,31.16,39.88,13.63,17.23,27.3,34.39,40.61,51.63H259c13.14-17.46,26.71-34.77,40.32-52.12,10.44-13.27,20.87-26.58,31.15-40,11.57-15.08,22.92-30.29,33.82-45.8,32.46-46.15,60.95-94.79,78.72-149.28C470.24,116.8,376.65,5.6,268.62,0H243C132.65,5.6,37.44,122.4,71.06,231.2,89.23,283,116.59,329.82,147.67,374.27ZM254.78,56.8c.41,0,.81,0,1.21,0,70.68.66,128,58.33,128,129.16S326.68,314.51,256,315.17c-.41,0-.8,0-1.21,0A129.34,129.34,0,0,1,125.59,186C125.59,114.77,183.54,56.8,254.78,56.8Z"
     fill="#434040"
     id="path4"
     style="fill:#000000" />
</svg>
